@startuml
title Task State Diagram

scale 500 width
[*] --> WAITING_ASSIGNMENT
WAITING_ASSIGNMENT -> IN_PROGRESS
IN_PROGRESS -> COMPLETED
IN_PROGRESS -> CANCELED_BY_FIELDEXECUTOR
IN_PROGRESS -> CANCELED_EXPIRED
IN_PROGRESS -> CANCELED_BY_CUSTOMER
COMPLETED --> [*]
CANCELED_EXPIRED --> [*]
CANCELED_BY_CUSTOMER --> [*]
CANCELED_BY_FIELDEXECUTOR --> WAITING_ASSIGNMENT
@enduml